<svg xmlns="http://www.w3.org/2000/svg" viewBox="0 0 24 24" fill="#F05032">
  <path d="M23.546 10.93L13.067.452c-.604-.603-1.582-.603-2.188 0L8.708 2.627l2.76 2.76c.645-.215 1.379-.07 1.889.441.516.515.658 1.258.438 1.9l2.658 2.66c.643-.223 1.387-.083 1.9.435.721.72.721 1.884 0 2.604-.719.719-1.881.719-2.6 0-.539-.541-.674-1.337-.404-1.996L12.86 8.955v6.525c.176.086.342.203.488.348.713.721.713 1.883 0 2.6-.719.721-1.889.721-2.609 0-.719-.719-.719-1.879 0-2.598.182-.18.387-.341.604-.473V8.835c-.217-.132-.422-.293-.604-.473-.537-.537-1.342-.657-1.996-.404l-2.66-2.66c-.02-.019-.048-.034-.062-.057l-.07-.07-4.5-4.5c-.603-.603-1.582-.603-2.185 0L.452 5.314c-.603.604-.603 1.582 0 2.186l4.5 4.5c.603.603 1.582.603 2.186 0l1.53-1.53 2.658 2.66c-.25.658-.125 1.462.404 1.996.721.719 1.88.719 2.599 0 .722-.719.722-1.88 0-2.599-.146-.145-.312-.262-.488-.348V9.327c.176-.086.342-.203.488-.348.514-.514.658-1.258.438-1.9L8.632 4.429 2.545 10.515c-.603.603-.603 1.582 0 2.186l4.5 4.5c.604.604 1.582.604 2.186 0l6.09-6.09 6.09 6.09c.603.604 1.582.604 2.186 0l4.5-4.5c.604-.603.604-1.582 0-2.186z"/>
</svg>

